<?xml version="1.0" encoding="UTF-8"?>
<svg version="1.1" xmlns="http://www.w3.org/2000/svg" width="1024" height="1024">
<path d="M0 0 C337.92 0 675.84 0 1024 0 C1024 337.92 1024 675.84 1024 1024 C686.08 1024 348.16 1024 0 1024 C0 686.08 0 348.16 0 0 Z " fill="#FEFEFE" transform="translate(0,0)"/>
<path d="M0 0 C4.22150123 1.70000593 6.86514308 4.70339908 10.00732422 7.92993164 C10.6939212 8.61981674 11.38051819 9.30970184 12.08792114 10.02049255 C14.28150191 12.22981359 16.46057036 14.45288696 18.64013672 16.67602539 C20.09890417 18.14628812 21.55853089 19.61569883 23.01904297 21.08422852 C24.43257365 22.5112003 25.84535779 23.93891204 27.25732422 25.36743164 C28.22954422 26.35073204 28.22954422 26.35073204 29.22140503 27.35389709 C32.26543936 30.46054535 35.21802084 33.60385097 38.04907227 36.90625 C42.67804397 42.25270179 47.71937629 47.19202692 52.72998047 52.17602539 C53.77394737 53.21812279 54.81769044 54.26044448 55.86122131 55.30297852 C58.58299594 58.02096985 61.30776195 60.73594229 64.03320312 63.45025635 C66.82394745 66.23069557 69.61179543 69.01403568 72.39990234 71.79711914 C77.8521803 77.23873381 83.30762781 82.67715642 88.76513672 88.11352539 C91.66944161 86.71992391 93.69639506 85.40866213 95.92919922 83.07446289 C96.77611328 82.2043457 96.77611328 82.2043457 97.64013672 81.31665039 C98.21763672 80.71336914 98.79513672 80.11008789 99.39013672 79.48852539 C100.54431189 78.2835055 101.70295135 77.08274052 102.86669922 75.88696289 C103.37539551 75.35506348 103.8840918 74.82316406 104.40820312 74.27514648 C105.76513672 73.11352539 105.76513672 73.11352539 107.76513672 73.11352539 C107.76513672 72.45352539 107.76513672 71.79352539 107.76513672 71.11352539 C109.38690368 69.40313728 111.06392713 67.74491789 112.76513672 66.11352539 C113.7101269 65.15219155 114.65151645 64.18730564 115.58935547 63.21899414 C116.54375762 62.24631343 117.49818484 61.27365731 118.45263672 60.30102539 C118.93796875 59.79893555 119.42330078 59.2968457 119.92333984 58.77954102 C121.16638278 57.51935266 122.46213564 56.31161495 123.76513672 55.11352539 C124.42513672 55.11352539 125.08513672 55.11352539 125.76513672 55.11352539 C125.97138672 54.55665039 126.17763672 53.99977539 126.39013672 53.42602539 C127.76513672 51.11352539 127.76513672 51.11352539 133.76513672 46.11352539 C133.76513672 125.64352539 133.76513672 205.17352539 133.76513672 287.11352539 C129.55853902 283.50787022 125.59055927 280.0656912 121.69400024 276.18955994 C121.23292795 275.73216433 120.77185565 275.27476872 120.29681146 274.80351263 C118.77562413 273.29320573 117.25790764 271.77946242 115.74023438 270.265625 C114.64069821 269.1723653 113.54097689 268.0792918 112.44108582 266.98638916 C108.85023787 263.41644223 105.26459657 259.84128879 101.67919922 256.26586914 C100.43779007 255.02851269 99.1963488 253.79118848 97.95487595 252.55389595 C92.12012477 246.73816532 86.28776803 240.92004646 80.4583441 235.09897608 C73.75883572 228.40923021 67.05113785 221.72783958 60.33632433 215.0534572 C55.12644258 209.87385796 49.92437723 204.68648951 44.72796476 199.49337775 C41.63347746 196.40122687 38.53585927 193.31238456 35.42988968 190.23176384 C32.5038121 187.32918582 29.58766651 184.41696779 26.6784153 181.49752808 C25.61817624 180.43679884 24.55460219 179.37938912 23.48719978 178.32586861 C3.43083144 158.51551944 -5.57125838 137.39014773 -5.76129246 109.28406334 C-5.76510195 105.40675339 -5.74901877 101.52985314 -5.73095703 97.65258789 C-5.72919569 94.92637754 -5.7325517 92.20017743 -5.73536682 89.47396851 C-5.73804845 83.79741738 -5.72475411 78.12108027 -5.70141602 72.44458008 C-5.67463867 65.88618953 -5.67312337 59.32815217 -5.68480438 52.76972544 C-5.69557234 46.43130077 -5.68941448 40.09300359 -5.6752491 33.75458908 C-5.66949872 31.06643018 -5.66956398 28.37836487 -5.6743145 25.69020462 C-5.67721257 21.95169676 -5.66079303 18.21377562 -5.63891602 14.4753418 C-5.64341766 13.36269455 -5.64791931 12.2500473 -5.65255737 11.10368347 C-5.64265274 10.08918625 -5.63274811 9.07468903 -5.62254333 8.02944946 C-5.62011344 7.14725046 -5.61768354 6.26505146 -5.61518002 5.35611916 C-5.02581461 1.88083902 -3.5615652 0.18091849 0 0 Z " fill="#2193FE" transform="translate(360.23486328125,283.886474609375)"/>
<path d="M0 0 C2.3899231 0.81651306 2.3899231 0.81651306 4.3899231 2.81651306 C4.64439869 4.92882156 4.64439869 4.92882156 4.65061951 7.59440613 C4.65770432 8.60345001 4.66478912 9.6124939 4.67208862 10.65211487 C4.66961121 11.76371979 4.66713379 12.87532471 4.6645813 14.02061462 C4.66969223 15.18835419 4.67480316 16.35609375 4.68006897 17.55921936 C4.69161748 20.77073035 4.6940325 23.98208192 4.69150567 27.19360828 C4.69043596 29.88152377 4.69532058 32.56941549 4.70011109 35.25732589 C4.7112238 41.61235941 4.71163722 47.96733388 4.70559692 54.32237244 C4.6995878 60.84896817 4.71178548 67.37534664 4.73316699 73.9019053 C4.75088922 79.52081547 4.75676681 85.13965724 4.75352925 90.75859427 C4.75172919 94.10699644 4.75556356 97.45512248 4.76824379 100.8035202 C4.87322616 132.43403909 -1.6965703 154.98246095 -24.43678391 177.90203357 C-26.00492391 179.47134548 -27.57779742 181.03581648 -29.15084839 182.60020447 C-30.29366981 183.74410133 -31.43605754 184.88843162 -32.57804871 186.03315735 C-35.65150876 189.11142238 -38.73111148 192.18347107 -41.81207156 195.25422716 C-45.04200196 198.47532041 -48.26660528 201.70173881 -51.4919281 204.92744446 C-56.89761582 210.33219907 -62.30714392 215.73308502 -67.71920776 221.13145447 C-73.98250991 227.37896719 -80.24050505 233.63175615 -86.49555153 239.88753378 C-92.51913172 245.91172301 -98.54555624 251.93305788 -104.57359505 257.95278549 C-107.13856364 260.51421769 -109.70267593 263.07650264 -112.26614189 265.63943863 C-115.27532247 268.64761885 -118.28702543 271.65325061 -121.30074883 274.65687943 C-122.40903265 275.76223038 -123.5164595 276.86844131 -124.62298965 277.97554779 C-126.12631114 279.47935618 -127.6326459 280.98007705 -129.1398468 282.47999573 C-129.98395835 283.32243143 -130.8280699 284.16486713 -131.69776058 285.03283119 C-133.6100769 286.81651306 -133.6100769 286.81651306 -134.6100769 286.81651306 C-134.6100769 207.61651306 -134.6100769 128.41651306 -134.6100769 46.81651306 C-126.7350769 53.56651306 -126.7350769 53.56651306 -123.51071167 56.80235291 C-122.79049332 57.52264679 -122.07027496 58.24294067 -121.32823181 58.98506165 C-120.57690475 59.74154999 -119.8255777 60.49803833 -119.05148315 61.27745056 C-118.26233017 62.06801849 -117.47317719 62.85858643 -116.66011047 63.67311096 C-114.16189029 66.17688932 -111.66718646 68.68413781 -109.1725769 71.19151306 C-107.47033483 72.89877554 -105.76786318 74.60580916 -104.06515503 76.31260681 C-99.91080327 80.47793205 -95.75932609 84.64610525 -91.6100769 88.81651306 C-85.99459192 84.14036253 -80.80031933 79.152704 -75.6413269 73.98057556 C-74.8021875 73.14239288 -73.9630481 72.30421021 -73.09848022 71.44062805 C-71.33239929 69.67522464 -69.56756864 67.90856966 -67.80392456 66.14073181 C-65.12193218 63.45339197 -62.4346562 60.77141963 -59.74679565 58.08995056 C-58.02381877 56.36631268 -56.3011522 54.64236453 -54.5788269 52.91807556 C-53.78383789 52.12511078 -52.98884888 51.332146 -52.16976929 50.51515198 C-48.07571493 46.40406536 -44.15884628 42.2108798 -40.37197876 37.81639099 C-34.85308255 31.55207003 -28.84816882 25.70712513 -22.97579956 19.77720642 C-21.30548328 18.0851148 -19.64147182 16.38677782 -17.98361206 14.68247986 C-15.57905322 12.21137768 -13.15570829 9.76021192 -10.7272644 7.31260681 C-9.98757416 6.54508591 -9.24788391 5.777565 -8.48577881 4.98678589 C-7.78800323 4.29178482 -7.09022766 3.59678375 -6.37130737 2.88072205 C-5.76398773 2.26309494 -5.15666809 1.64546783 -4.53094482 1.00912476 C-2.6100769 -0.18348694 -2.6100769 -0.18348694 0 0 Z " fill="#1879F9" transform="translate(665.6100769042969,284.18348693847656)"/>
<path d="M0 0 C2.04119788 1.61594832 4.04072937 3.2856382 6 5 C6 5.66 6 6.32 6 7 C6.56760544 7.22999695 7.13521088 7.4599939 7.72001648 7.69696045 C10.60707555 9.34695139 12.28919449 11.33930067 14.47973633 13.84863281 C22.57752647 22.91901743 31.277244 31.40483396 39.88509345 39.98648739 C42.32389073 42.41895064 44.75977701 44.85432579 47.19599915 47.28936768 C51.7906121 51.8808965 56.38776352 56.46987469 60.98587781 61.05789685 C66.22867163 66.28943786 71.4685602 71.52388476 76.70823038 76.75855398 C87.46896876 87.50889422 98.23327326 98.25565699 109 109 C107.38773372 112.40601712 105.60239912 114.64072901 102.91748047 117.30957031 C102.07675995 118.15013977 101.23603943 118.99070923 100.36984253 119.85675049 C99.46146637 120.75480408 98.55309021 121.65285767 97.6171875 122.578125 C96.68778351 123.5046991 95.75837952 124.43127319 94.80081177 125.38592529 C92.3359615 127.84315789 89.86516334 130.29432361 87.39306641 132.7442627 C84.86909235 135.24773809 82.35080612 137.75692063 79.83203125 140.265625 C74.89356403 145.18267525 69.948788 150.09333788 65 155 C60.91482394 153.37582304 58.16868302 150.45036838 55.12988281 147.38867188 C54.26581566 146.52986168 54.26581566 146.52986168 53.3842926 145.65370178 C51.4855142 143.7637119 49.59412809 141.86651702 47.703125 139.96875 C46.38634002 138.65331212 45.06925826 137.33817127 43.75189209 136.02331543 C40.99490316 133.26927355 38.24156091 130.51164986 35.49072266 127.75146484 C31.95758329 124.20690886 28.41551214 120.67143598 24.87068558 117.13857269 C22.15113133 114.4262292 19.43633859 111.70916037 16.72298431 108.99061584 C15.41825086 107.68454488 14.1120209 106.37996717 12.8042984 105.07688904 C10.98217305 103.25981842 9.16654158 101.43650292 7.35253906 99.61132812 C6.80712967 99.06996719 6.26172028 98.52860626 5.69978333 97.97084045 C2 94.22853132 2 94.22853132 2 92 C-5.44418944 98.20346189 -12.20215888 105.07411483 -19.03125 111.93359375 C-20.27513013 113.17934244 -21.51923381 114.42486795 -22.7635498 115.67018127 C-26.01419015 118.92461236 -29.26181428 122.18203681 -32.50878906 125.44012451 C-35.83214452 128.77376868 -39.1583858 132.10453077 -42.484375 135.43554688 C-48.99238809 141.95423646 -55.49721383 148.47609653 -62 155 C-65.44677 153.51657 -67.67343301 151.56949812 -70.30957031 148.91748047 C-71.15013977 148.07675995 -71.99070923 147.23603943 -72.85675049 146.36984253 C-74.20383087 145.00727829 -74.20383087 145.00727829 -75.578125 143.6171875 C-76.5046991 142.68778351 -77.43127319 141.75837952 -78.38592529 140.80081177 C-80.84315789 138.3359615 -83.29432361 135.86516334 -85.7442627 133.39306641 C-88.24773809 130.86909235 -90.75692063 128.35080612 -93.265625 125.83203125 C-98.18267525 120.89356403 -103.09333788 115.948788 -108 111 C-105.3232775 105.67655374 -101.15312692 101.89450806 -96.96777344 97.7565918 C-95.74040215 96.53119186 -95.74040215 96.53119186 -94.48823547 95.28103638 C-91.78318207 92.58247147 -89.07122479 89.89095222 -86.359375 87.19921875 C-84.47420024 85.32031711 -82.58947409 83.44097682 -80.7053833 81.56098938 C-76.24811254 77.11508774 -71.78619648 72.67388212 -67.32221532 68.2347191 C-59.3441835 60.30098247 -51.37161811 52.36176296 -43.40440965 44.41715747 C-40.16486119 41.18729925 -36.92080909 37.96200697 -33.67572021 34.73771667 C-31.96696368 33.03579354 -30.25831931 31.33375778 -28.54980469 29.6315918 C-27.78487198 28.87339645 -27.01993927 28.11520111 -26.23182678 27.33403015 C-22.17719738 23.28793025 -18.29532236 19.15713139 -14.57513809 14.80054951 C-11.88326885 11.72345813 -8.97372942 8.86777824 -6.0625 6 C-5.17981445 5.12408203 -5.17981445 5.12408203 -4.27929688 4.23046875 C-2.85520207 2.81795195 -1.4279475 1.4086219 0 0 Z " fill="#208EFE" transform="translate(512,163)"/>
<path d="M0 0 C1.49720581 0.01135986 1.49720581 0.01135986 3.0246582 0.02294922 C22.04055465 0.44168711 38.12196418 7.05723128 51.8125 20.4375 C65.53885884 36.0125267 70.11489182 54.73205269 69.02392578 75.02636719 C67.56982031 91.60921428 59.3917316 106.93157166 47.0234375 117.9140625 C29.37709819 131.83558085 9.17808844 135.50743372 -12.72265625 133.0390625 C-31.09362569 129.53332608 -46.0230876 118.50049223 -56.50390625 103.26953125 C-62.14029997 93.78835852 -65.46647881 83.42049719 -66.1875 72.4375 C-66.25324219 71.47972656 -66.31898438 70.52195312 -66.38671875 69.53515625 C-67.01696564 51.95344125 -60.68888591 33.94047969 -48.8125 20.875 C-35.80920906 7.30683588 -18.79552057 -0.20253447 0 0 Z " fill="#03235C" transform="translate(372.1875,642.5625)"/>
<path d="M0 0 C3.14116587 2.18136519 6.10527786 4.50219011 9 7 C9.33 4.03 9.66 1.06 10 -2 C17.59 -2 25.18 -2 33 -2 C33.09066959 10.16193078 33.16392802 22.32363401 33.20724869 34.48582745 C33.22804915 40.1343163 33.25622812 45.78256025 33.30175781 51.4309082 C33.34548559 56.89039807 33.3691937 62.3496536 33.37950897 67.80930519 C33.38685225 69.8835398 33.40119087 71.9577628 33.42292023 74.03189659 C33.58829425 90.48414204 32.65842228 104.41989925 21.03515625 117.15234375 C10.21801806 127.65650868 -3.87093497 130.39816136 -18.46826172 130.37084961 C-30.0348934 130.06619621 -41.21997978 126.15353621 -51 120 C-53 117 -53 117 -52.85986328 114.9152832 C-52.68181152 114.13499756 -52.50375977 113.35471191 -52.3203125 112.55078125 C-52.13339844 111.70322266 -51.94648437 110.85566406 -51.75390625 109.98242188 C-51.54636719 109.10134766 -51.33882812 108.22027344 -51.125 107.3125 C-50.92519531 106.41982422 -50.72539063 105.52714844 -50.51953125 104.60742188 C-50.02422816 102.40214382 -49.51735651 100.20018996 -49 98 C-46.73387106 99.12897617 -44.47772489 100.27108214 -42.23046875 101.4375 C-41.22628906 101.953125 -40.22210937 102.46875 -39.1875 103 C-38.19105469 103.515625 -37.19460938 104.03125 -36.16796875 104.5625 C-26.1570816 109.10504805 -14.38846386 109.79316723 -3.875 106.4375 C2.45631621 103.73359954 5.80434406 99.93479186 8.375 93.625 C9.11066161 89.35816269 9.17613118 85.31521395 9 81 C8.59910156 81.38671875 8.19820312 81.7734375 7.78515625 82.171875 C-1.35637979 90.54643409 -10.96089751 92.51651958 -23.13671875 92.27734375 C-34.19471855 91.48349341 -42.38421311 86.08379516 -49.75 78.125 C-52.9067956 74.32967075 -55.19668489 70.59177458 -57 66 C-57.2990625 65.27039063 -57.598125 64.54078125 -57.90625 63.7890625 C-60.09280894 57.37110709 -60.28203367 51.08872409 -60.3125 44.375 C-60.31797852 43.49239502 -60.32345703 42.60979004 -60.32910156 41.70043945 C-60.18015672 27.95000567 -55.96715497 17.32131541 -46.46484375 7.265625 C-35.12340537 -3.15915196 -14.15430697 -8.1443433 0 0 Z " fill="#03235B" transform="translate(740,681)"/>
<path d="M0 0 C7.92 0 15.84 0 24 0 C24 43.56 24 87.12 24 132 C16.41 132 8.82 132 1 132 C0.505 127.545 0.505 127.545 0 123 C-0.46148438 123.45890625 -0.92296875 123.9178125 -1.3984375 124.390625 C-10.36233153 132.82306286 -18.46753131 134.63095892 -30.52539062 134.54321289 C-37.8103877 134.2805983 -43.68683044 132.75997618 -50 129 C-50.74378906 128.56558594 -51.48757813 128.13117188 -52.25390625 127.68359375 C-62.4009435 120.92532036 -67.76158471 109.41366372 -70.25 97.8125 C-72.58791135 82.90041677 -71.27125454 67.91223278 -63 55 C-55.22075399 44.61740235 -45.89390883 38.13720955 -33 36 C-21.62158478 34.79048342 -12.42494181 37.57137237 -3.4609375 44.6328125 C-2 46 -2 46 -1 48 C-0.67 32.16 -0.34 16.32 0 0 Z " fill="#04235B" transform="translate(644,641)"/>
<path d="M0 0 C70.41509434 0 70.41509434 0 83.19140625 12.0703125 C92.66095085 22.08047567 94.50947618 32.28934053 94.27734375 45.69140625 C93.7736405 57.16130556 87.86507167 65.4430544 79.875 73.1875 C71.35825992 80.52055756 61.30615652 83.17967553 50.29296875 83.09765625 C49.3274408 83.09614563 49.3274408 83.09614563 48.34240723 83.09460449 C45.95741981 83.08940599 43.57245795 83.07544492 41.1875 83.0625 C35.845625 83.041875 30.50375 83.02125 25 83 C25 97.85 25 112.7 25 128 C16.75 128 8.5 128 0 128 C0 85.76 0 43.52 0 0 Z " fill="#02235B" transform="translate(202,645)"/>
<path d="M0 0 C25.41 0 50.82 0 77 0 C77 6.93 77 13.86 77 21 C59.84 21 42.68 21 25 21 C25 31.56 25 42.12 25 53 C39.85 53 54.7 53 70 53 C70 59.93 70 66.86 70 74 C55.15 74 40.3 74 25 74 C25 84.89 25 95.78 25 107 C42.49 107 59.98 107 78 107 C78 113.93 78 120.86 78 128 C52.26 128 26.52 128 0 128 C0 85.76 0 43.52 0 0 Z " fill="#05245C" transform="translate(486,645)"/>
<path d="M0 0 C9.2149675 7.1224858 14.32677863 19.40906557 16.1015625 30.6953125 C16.19164501 32.73541643 16.23168051 34.77822712 16.2265625 36.8203125 C16.23042969 38.37105469 16.23042969 38.37105469 16.234375 39.953125 C16.1015625 42.6953125 16.1015625 42.6953125 15.1015625 45.6953125 C-6.3484375 45.6953125 -27.7984375 45.6953125 -49.8984375 45.6953125 C-47.29459547 57.32675077 -47.29459547 57.32675077 -39.9375 66.0390625 C-33.20825348 69.54127258 -26.24090453 70.92669782 -18.74609375 69.19921875 C-12.77020329 67.1690218 -8.43484695 63.99992668 -4.8984375 58.6953125 C-2.32421875 58.3671875 -2.32421875 58.3671875 0.7890625 58.4453125 C1.86027344 58.47109375 2.93148437 58.496875 4.03515625 58.5234375 C7.45740575 58.71525785 10.73138542 59.08255303 14.1015625 59.6953125 C13.67146514 67.86716234 8.6012496 74.60607086 2.8515625 80.0703125 C-1.68693297 83.85366335 -6.2879801 85.95634528 -11.8984375 87.6953125 C-12.55457031 87.91960937 -13.21070313 88.14390625 -13.88671875 88.375 C-25.62456456 91.9230859 -38.15912536 89.50678683 -49.0859375 84.5078125 C-60.99453972 78.08519557 -67.75139975 68.35469089 -71.8984375 55.6953125 C-75.8073334 42.31873289 -73.76013943 25.86485158 -67.35546875 13.78515625 C-60.57506035 2.25691039 -50.71554475 -4.8977905 -37.8359375 -8.6796875 C-23.85460842 -10.89894608 -11.61792603 -7.984336 0 0 Z " fill="#03235B" transform="translate(858.8984375,686.3046875)"/>
<path d="M0 0 C11.63312793 6.66090389 18.33722199 15.73476788 22.421875 28.38671875 C25.58940346 40.86803951 23.98598965 55.42810175 17.734375 66.63671875 C11.45112139 76.22290519 3.29872856 83.00406084 -7.96484375 86.02734375 C-20.18770886 87.70821608 -31.47576061 86.86756869 -41.828125 79.63671875 C-52.63428909 70.82349476 -57.3475595 61.02872803 -59.578125 47.38671875 C-60.87308377 34.57712654 -57.17921672 22.13853768 -49.67578125 11.75390625 C-37.96329867 -2.43662418 -17.09135124 -7.56371911 0 0 Z " fill="#FDFDFE" transform="translate(391.578125,667.61328125)"/>
<path d="M0 0 C8.25 0 16.5 0 25 0 C25 42.24 25 84.48 25 128 C16.75 128 8.5 128 0 128 C0 85.76 0 43.52 0 0 Z " fill="#02225A" transform="translate(155,645)"/>
<path d="M0 0 C5.28495476 2.93852256 9.13172886 6.65174646 11.8828125 12.046875 C12.50122033 16.82001189 12.34634557 21.61285611 12.3203125 26.421875 C12.3502832 28.37480469 12.3502832 28.37480469 12.38085938 30.3671875 C12.37647492 38.96072839 11.84978745 44.07990005 5.6328125 50.296875 C-1.30400539 54.71121366 -7.90257814 56.09171566 -16.1171875 55.046875 C-23.46769907 53.00363839 -28.50279331 47.60815848 -32.21875 41.125 C-35.65803904 32.83213484 -35.56660335 22.04296752 -33.0859375 13.4921875 C-29.96581153 6.54124019 -25.9806177 2.3543947 -19.1171875 -0.953125 C-12.83907766 -3.04582828 -6.06916705 -2.60458181 0 0 Z " fill="#FDFDFD" transform="translate(632.1171875,699.953125)"/>
<path d="M0 0 C5.781733 3.33561519 10.13844417 6.88747528 13.25 12.875 C13.85367811 16.96213789 13.71375754 21.06029248 13.6875 25.1875 C13.7174707 26.84168945 13.7174707 26.84168945 13.74804688 28.52929688 C13.74410719 35.12827325 13.28703178 40.47276378 9.25 45.875 C6.99609375 47.93359375 6.99609375 47.93359375 4.6875 49.3125 C3.92308594 49.78558594 3.15867187 50.25867188 2.37109375 50.74609375 C-3.45706584 53.84800558 -10.85147529 54.04710547 -17.140625 52.15625 C-24.17859006 48.82530471 -28.32758427 43.71983146 -31.75 36.875 C-33.91469809 28.31655788 -33.80089488 19.1592882 -30.078125 11.09765625 C-23.40699085 -0.06668296 -12.30932538 -3.69279761 0 0 Z " fill="#FDFDFE" transform="translate(736.75,699.125)"/>
<path d="M0 0 C3.75375 -0.061875 7.5075 -0.12375 11.375 -0.1875 C13.11789307 -0.22846802 13.11789307 -0.22846802 14.89599609 -0.27026367 C24.02277523 -0.34228051 32.85018995 0.87159139 40 7 C44.57067624 12.53292386 44.44136558 17.56415418 44.43359375 24.59765625 C43.60503543 31.09922646 40.69684576 34.7835075 35.76171875 38.74609375 C28.52600254 43.89612679 19.59666856 43.12979218 11.125 43.0625 C7.45375 43.041875 3.7825 43.02125 0 43 C0 28.81 0 14.62 0 0 Z " fill="#FBFCFD" transform="translate(227,665)"/>
<path d="M0 0 C5.22666422 3.24053182 9.59977782 7.83661128 11.125 13.9375 C11.125 16.2475 11.125 18.5575 11.125 20.9375 C-3.065 20.9375 -17.255 20.9375 -31.875 20.9375 C-29.65934456 10.96705051 -27.01711879 5.73710666 -18.875 -0.0625 C-13.11693759 -1.98185414 -5.7590651 -2.10477043 0 0 Z " fill="#F4F7F9" transform="translate(840.875,697.0625)"/>
<path d="M0 0 C7.875 6.75 7.875 6.75 11.09936523 9.98583984 C11.81958359 10.70613373 12.53980194 11.42642761 13.28184509 12.16854858 C14.03317215 12.92503693 14.78449921 13.68152527 15.55859375 14.4609375 C16.34774673 15.25150543 17.13689972 16.04207336 17.94996643 16.8565979 C20.44818661 19.36037626 22.94289044 21.86762475 25.4375 24.375 C27.13974208 26.08226248 28.84221373 27.78929609 30.54492188 29.49609375 C34.69927363 33.66141898 38.85075081 37.82959219 43 42 C47.83298806 37.97251947 52.38110004 33.75620587 56.80859375 29.2890625 C57.72597069 28.36956314 57.72597069 28.36956314 58.66188049 27.43148804 C60.58947559 25.49835436 62.51353928 23.56175013 64.4375 21.625 C65.75432404 20.30315301 67.07137926 18.98153628 68.38867188 17.66015625 C71.59512373 14.44275701 74.79841629 11.22224319 78 8 C78 11 78 11 76.79418945 12.54638672 C75.96213989 13.35487061 75.96213989 13.35487061 75.11328125 14.1796875 C74.1996582 15.07880859 74.1996582 15.07880859 73.26757812 15.99609375 C72.62240234 16.61613281 71.97722656 17.23617188 71.3125 17.875 C70.37374023 18.79345703 70.37374023 18.79345703 69.41601562 19.73046875 C68.17903629 20.94024749 66.93955553 22.14747418 65.69750977 23.35205078 C62.25421217 26.69481776 58.89395309 30.10625623 55.58984375 33.5859375 C54.37259233 34.84914771 53.15514111 36.11216542 51.9375 37.375 C51.32583984 38.02855469 50.71417969 38.68210937 50.08398438 39.35546875 C49.18969727 40.27392578 49.18969727 40.27392578 48.27734375 41.2109375 C47.74359131 41.77087402 47.20983887 42.33081055 46.65991211 42.90771484 C45 44 45 44 43.14839172 43.79911804 C40.41589111 42.78273424 39.01648335 41.37703351 36.96582031 39.30639648 C36.18531311 38.52566269 35.40480591 37.74492889 34.60064697 36.9405365 C33.76821472 36.09262039 32.93578247 35.24470428 32.078125 34.37109375 C31.21813904 33.50686295 30.35815308 32.64263214 29.47210693 31.75221252 C26.72429425 28.98759388 23.98708964 26.21273138 21.25 23.4375 C19.39001175 21.56246749 17.52934293 19.68810982 15.66796875 17.81445312 C11.10405027 13.21743983 6.54880062 8.61197045 2 4 C1.97645157 28.3601307 1.9589146 52.72025965 1.94818783 77.08039951 C1.94307084 88.39580736 1.93611788 99.71120807 1.92456055 111.02661133 C1.914471 120.90981471 1.90811334 130.79301292 1.90591151 140.67622131 C1.90462813 145.89045762 1.90169834 151.10467913 1.89426994 156.3189106 C1.85830016 182.56283266 2.17027578 208.76853233 3 235 C5.97 232.03 8.94 229.06 12 226 C12.66 226.33 13.32 226.66 14 227 C11.85714108 229.16968191 9.71091768 231.33583475 7.5625 233.5 C6.95083984 234.12003906 6.33917969 234.74007812 5.70898438 235.37890625 C5.12568359 235.96542969 4.54238281 236.55195312 3.94140625 237.15625 C3.40201416 237.70087891 2.86262207 238.24550781 2.30688477 238.80664062 C1 240 1 240 0 240 C0 160.8 0 81.6 0 0 Z " fill="#0256F8" transform="translate(531,331)"/>
<path d="M0 0 C0.66 0.33 1.32 0.66 2 1 C1.01 2.485 1.01 2.485 0 4 C-0.31082019 6.27582264 -0.31082019 6.27582264 -0.2784729 8.84049988 C-0.28963638 9.83749405 -0.30079987 10.83448822 -0.31230164 11.86169434 C-0.31446182 12.95429565 -0.31662201 14.04689697 -0.31884766 15.17260742 C-0.32889328 16.32396683 -0.3389389 17.47532623 -0.34928894 18.66157532 C-0.38023806 22.47620127 -0.39718881 26.29075667 -0.4140625 30.10546875 C-0.43276469 32.74677645 -0.45233738 35.38807812 -0.4727478 38.02937317 C-0.51955152 44.27661557 -0.55628786 50.52387511 -0.58942068 56.77120334 C-0.62763086 63.88364861 -0.67704388 70.99600219 -0.72740483 78.10837018 C-0.83074831 92.73884288 -0.92000085 107.36938128 -1 122 C-1.33 122 -1.66 122 -2 122 C-2.04667686 106.38849554 -2.08196762 90.77700984 -2.10362434 75.16545296 C-2.11394625 67.91708166 -2.12802399 60.66875366 -2.15087891 53.42041016 C-2.17078487 47.10431702 -2.18370978 40.78825524 -2.18817699 34.47213161 C-2.19078913 31.12637189 -2.19694761 27.78070188 -2.21146011 24.43497086 C-2.22589039 20.70415077 -2.22798149 16.97351909 -2.22705078 13.24267578 C-2.23424133 12.12777771 -2.24143188 11.01287964 -2.24884033 9.86419678 C-2.246091 8.85174896 -2.24334167 7.83930115 -2.24050903 6.7961731 C-2.24235262 5.91309542 -2.24419621 5.03001774 -2.24609566 4.12018013 C-2 2 -2 2 0 0 Z " fill="#0070FE" transform="translate(357,285)"/>
<path d="M0 0 C2.04119788 1.61594832 4.04072937 3.2856382 6 5 C6 5.66 6 6.32 6 7 C7.32 7.66 8.64 8.32 10 9 C9.34 9.66 8.68 10.32 8 11 C7.67 10.01 7.34 9.02 7 8 C5.08333333 6.83333333 5.08333333 6.83333333 3 6 C2.34 5.67 1.68 5.34 1 5 C1 4.34 1 3.68 1 3 C0.34 3 -0.32 3 -1 3 C-1.33 3.99 -1.66 4.98 -2 6 C-2.66 6 -3.32 6 -4 6 C-4.226875 6.61875 -4.45375 7.2375 -4.6875 7.875 C-6.37929835 10.61410209 -7.99244161 11.05024472 -11 12 C-7.49102731 7.81576108 -3.91939465 3.80411834 0 0 Z " fill="#2882FE" transform="translate(512,163)"/>
<path d="M0 0 C0.33 0.66 0.66 1.32 1 2 C-1.16252661 6.86568488 -4.93525257 9.75933835 -9 13 C-9.66 12.67 -10.32 12.34 -11 12 C-10.37351562 11.38511719 -9.74703125 10.77023437 -9.1015625 10.13671875 C-8.28429687 9.32847656 -7.46703125 8.52023437 -6.625 7.6875 C-5.40683594 6.48673828 -5.40683594 6.48673828 -4.1640625 5.26171875 C-1.87395158 2.99990063 -1.87395158 2.99990063 0 0 Z " fill="#06144A" transform="translate(408,735)"/>
<path d="M0 0 C0.66 0 1.32 0 2 0 C1.67 0.99 1.34 1.98 1 3 C0.34 3 -0.32 3 -1 3 C-1.28617188 3.71542969 -1.57234375 4.43085937 -1.8671875 5.16796875 C-3.578125 9.4453125 -5.2890625 13.72265625 -7 18 C-8.21268968 15.0979565 -8.01909036 14.04912674 -6.85546875 11.0546875 C-6.30503906 10.00539063 -5.75460937 8.95609375 -5.1875 7.875 C-4.64480469 6.82054687 -4.10210938 5.76609375 -3.54296875 4.6796875 C-2 2 -2 2 0 0 Z " fill="#071242" transform="translate(796,694)"/>
<path d="M0 0 C-1.57914015 0.53341184 -3.16354387 1.05125763 -4.75 1.5625 C-5.63171875 1.85253906 -6.5134375 2.14257812 -7.421875 2.44140625 C-10.07834316 3.01697435 -11.47031106 2.89248371 -14 2 C-14 1.34 -14 0.68 -14 0 C-12.2300132 -0.19532961 -10.45895721 -0.38098882 -8.6875 -0.5625 C-7.70136719 -0.66691406 -6.71523438 -0.77132812 -5.69921875 -0.87890625 C-3 -1 -3 -1 0 0 Z " fill="#0B1B4E" transform="translate(270,725)"/>
<path d="M0 0 C4.52615993 3.67832017 8.39424999 7.41086363 12 12 C9.6875 11.8125 9.6875 11.8125 7 11 C5.4375 8.6875 5.4375 8.6875 4 6 C3.278125 5.278125 2.55625 4.55625 1.8125 3.8125 C1.214375 3.214375 0.61625 2.61625 0 2 C0 1.34 0 0.68 0 0 Z " fill="#0A80FD" transform="translate(417,341)"/>
<path d="M0 0 C0 3 0 3 -2.3125 5.6875 C-5 8 -5 8 -8 8 C-6.88333826 4.65001479 -6.25305075 4.20659778 -3.4375 2.3125 C-2.79683594 1.87550781 -2.15617187 1.43851562 -1.49609375 0.98828125 C-1.00238281 0.66214844 -0.50867188 0.33601563 0 0 Z " fill="#188BFE" transform="translate(475,350)"/>
<path d="M0 0 C0 4.35251187 -2.06165511 5.92809398 -5 9 C-7.171875 9.6796875 -7.171875 9.6796875 -9 10 C-8.06409496 8.8944811 -7.12620142 7.79064547 -6.1875 6.6875 C-5.66542969 6.07261719 -5.14335937 5.45773438 -4.60546875 4.82421875 C-3.12827531 3.14575321 -1.59960869 1.56117966 0 0 Z " fill="#0C74FE" transform="translate(493,183)"/>
<path d="M0 0 C3.7952131 1.49097658 5.61042731 3.75700849 8 7 C5 7 5 7 2.3125 4.625 C0 2 0 2 0 0 Z " fill="#3097FD" transform="translate(380,304)"/>
</svg>
